When Santa and his reindeer crash onto the island of Madagascar it's up to Alex, Marty, Gloria Melman and those wacky penguins to save Christmas. Get ready for a sleigh full of laughs in this hilarious new holiday classic.

Format                           : MPEG-4
Format profile                   : Base Media / Version 2
Codec ID                         : mp42
File size                        : 418 MiB
Duration                         : 27mn 2s
Overall bit rate                 : 2 163 Kbps
Encoded date                     : UTC 2009-12-11 15:10:26
Tagged date                      : UTC 2009-12-11 16:39:37
Writing application              : HandBrake 0.9.3 2008112300

Video
ID                               : 1
Format                           : AVC
Format/Info                      : Advanced Video Codec
Format profile                   : Main@L4.0
Format settings, CABAC           : Yes
Format settings, ReFrames        : 3 frames
Codec ID                         : avc1
Codec ID/Info                    : Advanced Video Coding
Duration                         : 27mn 2s
Bit rate mode                    : Variable
Bit rate                         : 2 000 Kbps
Width                            : 720 pixels
Height                           : 574 pixels
Display aspect ratio             : 16:9
Frame rate mode                  : Variable
Frame rate                       : 25.000 fps
Minimum frame rate               : 12.500 fps
Maximum frame rate               : 25.000 fps
Resolution                       : 24 bits
Colorimetry                      : 4:2:0
Scan type                        : Progressive
Bits/(Pixel*Frame)               : 0.194
Stream size                      : 387 MiB (92%)
Writing library                  : x264 core 65
Encoding settings                : cabac=1 / ref=2 / deblock=1:-2:-1 / analyse=0x1:0x131 / me=umh / subme=9 / psy_rd=1.0:0.0 / mixed_ref=1 / me_range=16 / chroma_me=1 / trellis=0 / 8x8dct=0 / cqm=0 / deadzone=21,11 / chroma_qp_offset=-2 / threads=3 / nr=0 / decimate=1 / mbaff=0 / bframes=3 / b_pyramid=1 / b_adapt=1 / b_bias=0 / direct=3 / wpredb=1 / keyint=250 / keyint_min=25 / scenecut=40(pre) / rc=2pass / bitrate=2000 / ratetol=1.0 / qcomp=0.60 / qpmin=10 / qpmax=51 / qpstep=4 / cplxblur=20.0 / qblur=0.5 / ip_ratio=1.40 / pb_ratio=1.30 / aq=1:1.00
Encoded date                     : UTC 2009-12-11 15:10:26
Tagged date                      : UTC 2009-12-11 16:39:37

Audio
ID                               : 2
Format                           : AAC
Format/Info                      : Advanced Audio Codec
Format version                   : Version 4
Format profile                   : LC
Format settings, SBR             : No
Codec ID                         : 40
Duration                         : 27mn 2s
Bit rate mode                    : Variable
Bit rate                         : 160 Kbps
Maximum bit rate                 : 215 Kbps
Channel(s)                       : 2 channels
Channel positions                : L R
Sampling rate                    : 48.0 KHz
Resolution                       : 16 bits
Stream size                      : 30.9 MiB (7%)
Language                         : English
Encoded date                     : UTC 2009-12-11 15:10:26
Tagged date                      : UTC 2009-12-11 16:39:33

